<svg width="126" height="26" viewBox="0 0 126 26" fill="none" xmlns="http://www.w3.org/2000/svg">
<path d="M39.5859 9.14062L36.1875 19H34.1328L38.4141 7.625H39.7266L39.5859 9.14062ZM42.4297 19L39.0234 9.14062L38.875 7.625H40.1953L44.4922 19H42.4297ZM42.2656 14.7812V16.3359H36.0781V14.7812H42.2656ZM47.3281 12.1719V22.25H45.4453V10.5469H47.1797L47.3281 12.1719ZM52.8359 14.6953V14.8594C52.8359 15.474 52.763 16.0443 52.6172 16.5703C52.4766 17.0911 52.2656 17.5469 51.9844 17.9375C51.7083 18.3229 51.3672 18.6224 50.9609 18.8359C50.5547 19.0495 50.0859 19.1562 49.5547 19.1562C49.0286 19.1562 48.5677 19.0599 48.1719 18.8672C47.7812 18.6693 47.4505 18.3906 47.1797 18.0312C46.9089 17.6719 46.6901 17.25 46.5234 16.7656C46.362 16.276 46.2474 15.7396 46.1797 15.1562V14.5234C46.2474 13.9036 46.362 13.3411 46.5234 12.8359C46.6901 12.3307 46.9089 11.8958 47.1797 11.5312C47.4505 11.1667 47.7812 10.8854 48.1719 10.6875C48.5625 10.4896 49.0182 10.3906 49.5391 10.3906C50.0703 10.3906 50.5417 10.4948 50.9531 10.7031C51.3646 10.9062 51.7109 11.1979 51.9922 11.5781C52.2734 11.9531 52.4844 12.4062 52.625 12.9375C52.7656 13.4635 52.8359 14.0495 52.8359 14.6953ZM50.9531 14.8594V14.6953C50.9531 14.3047 50.9167 13.9427 50.8438 13.6094C50.7708 13.2708 50.6562 12.974 50.5 12.7188C50.3438 12.4635 50.1432 12.2656 49.8984 12.125C49.6589 11.9792 49.3698 11.9062 49.0312 11.9062C48.6979 11.9062 48.4115 11.9635 48.1719 12.0781C47.9323 12.1875 47.7318 12.3411 47.5703 12.5391C47.4089 12.737 47.2839 12.9688 47.1953 13.2344C47.1068 13.4948 47.0443 13.7786 47.0078 14.0859V15.6016C47.0703 15.9766 47.1771 16.3203 47.3281 16.6328C47.4792 16.9453 47.6927 17.1953 47.9688 17.3828C48.25 17.5651 48.6094 17.6562 49.0469 17.6562C49.3854 17.6562 49.6745 17.5833 49.9141 17.4375C50.1536 17.2917 50.349 17.0911 50.5 16.8359C50.6562 16.5755 50.7708 16.276 50.8438 15.9375C50.9167 15.599 50.9531 15.2396 50.9531 14.8594ZM56.3281 12.1719V22.25H54.4453V10.5469H56.1797L56.3281 12.1719ZM61.8359 14.6953V14.8594C61.8359 15.474 61.763 16.0443 61.6172 16.5703C61.4766 17.0911 61.2656 17.5469 60.9844 17.9375C60.7083 18.3229 60.3672 18.6224 59.9609 18.8359C59.5547 19.0495 59.0859 19.1562 58.5547 19.1562C58.0286 19.1562 57.5677 19.0599 57.1719 18.8672C56.7812 18.6693 56.4505 18.3906 56.1797 18.0312C55.9089 17.6719 55.6901 17.25 55.5234 16.7656C55.362 16.276 55.2474 15.7396 55.1797 15.1562V14.5234C55.2474 13.9036 55.362 13.3411 55.5234 12.8359C55.6901 12.3307 55.9089 11.8958 56.1797 11.5312C56.4505 11.1667 56.7812 10.8854 57.1719 10.6875C57.5625 10.4896 58.0182 10.3906 58.5391 10.3906C59.0703 10.3906 59.5417 10.4948 59.9531 10.7031C60.3646 10.9062 60.7109 11.1979 60.9922 11.5781C61.2734 11.9531 61.4844 12.4062 61.625 12.9375C61.7656 13.4635 61.8359 14.0495 61.8359 14.6953ZM59.9531 14.8594V14.6953C59.9531 14.3047 59.9167 13.9427 59.8438 13.6094C59.7708 13.2708 59.6562 12.974 59.5 12.7188C59.3438 12.4635 59.1432 12.2656 58.8984 12.125C58.6589 11.9792 58.3698 11.9062 58.0312 11.9062C57.6979 11.9062 57.4115 11.9635 57.1719 12.0781C56.9323 12.1875 56.7318 12.3411 56.5703 12.5391C56.4089 12.737 56.2839 12.9688 56.1953 13.2344C56.1068 13.4948 56.0443 13.7786 56.0078 14.0859V15.6016C56.0703 15.9766 56.1771 16.3203 56.3281 16.6328C56.4792 16.9453 56.6927 17.1953 56.9688 17.3828C57.25 17.5651 57.6094 17.6562 58.0469 17.6562C58.3854 17.6562 58.6745 17.5833 58.9141 17.4375C59.1536 17.2917 59.349 17.0911 59.5 16.8359C59.6562 16.5755 59.7708 16.276 59.8438 15.9375C59.9167 15.599 59.9531 15.2396 59.9531 14.8594ZM73.5938 16.0703C73.5938 15.8359 73.5573 15.6276 73.4844 15.4453C73.4167 15.263 73.2943 15.0964 73.1172 14.9453C72.9401 14.7943 72.6901 14.6484 72.3672 14.5078C72.0495 14.362 71.6432 14.2135 71.1484 14.0625C70.6068 13.8958 70.1068 13.7109 69.6484 13.5078C69.1953 13.2995 68.7995 13.0599 68.4609 12.7891C68.1224 12.513 67.8594 12.1979 67.6719 11.8438C67.4844 11.4844 67.3906 11.0703 67.3906 10.6016C67.3906 10.138 67.487 9.71615 67.6797 9.33594C67.8776 8.95573 68.1562 8.6276 68.5156 8.35156C68.8802 8.07031 69.3099 7.85417 69.8047 7.70312C70.2995 7.54688 70.8464 7.46875 71.4453 7.46875C72.2891 7.46875 73.0156 7.625 73.625 7.9375C74.2396 8.25 74.7109 8.66927 75.0391 9.19531C75.3724 9.72135 75.5391 10.3021 75.5391 10.9375H73.5938C73.5938 10.5625 73.513 10.2318 73.3516 9.94531C73.1953 9.65365 72.9557 9.42448 72.6328 9.25781C72.3151 9.09115 71.9115 9.00781 71.4219 9.00781C70.9583 9.00781 70.5729 9.07812 70.2656 9.21875C69.9583 9.35938 69.7292 9.54948 69.5781 9.78906C69.4271 10.0286 69.3516 10.2995 69.3516 10.6016C69.3516 10.8151 69.401 11.0104 69.5 11.1875C69.599 11.3594 69.75 11.5208 69.9531 11.6719C70.1562 11.8177 70.4115 11.9557 70.7188 12.0859C71.026 12.2161 71.388 12.3411 71.8047 12.4609C72.4349 12.6484 72.9844 12.8568 73.4531 13.0859C73.9219 13.3099 74.3125 13.5651 74.625 13.8516C74.9375 14.138 75.1719 14.4635 75.3281 14.8281C75.4844 15.1875 75.5625 15.5964 75.5625 16.0547C75.5625 16.5339 75.4661 16.9661 75.2734 17.3516C75.0807 17.7318 74.8047 18.0573 74.4453 18.3281C74.0911 18.5938 73.6641 18.7995 73.1641 18.9453C72.6693 19.0859 72.1172 19.1562 71.5078 19.1562C70.9609 19.1562 70.4219 19.0833 69.8906 18.9375C69.3646 18.7917 68.8854 18.5703 68.4531 18.2734C68.0208 17.9714 67.6771 17.5964 67.4219 17.1484C67.1667 16.6953 67.0391 16.1667 67.0391 15.5625H69C69 15.9323 69.0625 16.2474 69.1875 16.5078C69.3177 16.7682 69.4974 16.9818 69.7266 17.1484C69.9557 17.3099 70.2214 17.4297 70.5234 17.5078C70.8307 17.5859 71.1589 17.625 71.5078 17.625C71.9661 17.625 72.349 17.5599 72.6562 17.4297C72.9688 17.2995 73.2031 17.1172 73.3594 16.8828C73.5156 16.6484 73.5938 16.3776 73.5938 16.0703ZM80.9844 10.5469V11.9219H76.2188V10.5469H80.9844ZM77.5938 8.47656H79.4766V16.6641C79.4766 16.9245 79.513 17.125 79.5859 17.2656C79.6641 17.401 79.7708 17.4922 79.9062 17.5391C80.0417 17.5859 80.2005 17.6094 80.3828 17.6094C80.513 17.6094 80.638 17.6016 80.7578 17.5859C80.8776 17.5703 80.974 17.5547 81.0469 17.5391L81.0547 18.9766C80.8984 19.0234 80.7161 19.0651 80.5078 19.1016C80.3047 19.138 80.0703 19.1562 79.8047 19.1562C79.3724 19.1562 78.9896 19.0807 78.6562 18.9297C78.3229 18.7734 78.0625 18.5208 77.875 18.1719C77.6875 17.8229 77.5938 17.3594 77.5938 16.7812V8.47656ZM81.8906 14.8672V14.6875C81.8906 14.0781 81.9792 13.513 82.1562 12.9922C82.3333 12.4661 82.5885 12.0104 82.9219 11.625C83.2604 11.2344 83.6719 10.9323 84.1562 10.7188C84.6458 10.5 85.1979 10.3906 85.8125 10.3906C86.4323 10.3906 86.9844 10.5 87.4688 10.7188C87.9583 10.9323 88.3724 11.2344 88.7109 11.625C89.0495 12.0104 89.3073 12.4661 89.4844 12.9922C89.6615 13.513 89.75 14.0781 89.75 14.6875V14.8672C89.75 15.4766 89.6615 16.0417 89.4844 16.5625C89.3073 17.0833 89.0495 17.5391 88.7109 17.9297C88.3724 18.3151 87.9609 18.6172 87.4766 18.8359C86.9922 19.0495 86.4427 19.1562 85.8281 19.1562C85.2083 19.1562 84.6536 19.0495 84.1641 18.8359C83.6797 18.6172 83.2682 18.3151 82.9297 17.9297C82.5911 17.5391 82.3333 17.0833 82.1562 16.5625C81.9792 16.0417 81.8906 15.4766 81.8906 14.8672ZM83.7734 14.6875V14.8672C83.7734 15.2474 83.8125 15.6068 83.8906 15.9453C83.9688 16.2839 84.0911 16.5807 84.2578 16.8359C84.4245 17.0911 84.638 17.2917 84.8984 17.4375C85.1589 17.5833 85.4688 17.6562 85.8281 17.6562C86.1771 17.6562 86.4792 17.5833 86.7344 17.4375C86.9948 17.2917 87.2083 17.0911 87.375 16.8359C87.5417 16.5807 87.6641 16.2839 87.7422 15.9453C87.8255 15.6068 87.8672 15.2474 87.8672 14.8672V14.6875C87.8672 14.3125 87.8255 13.9583 87.7422 13.625C87.6641 13.2865 87.5391 12.987 87.3672 12.7266C87.2005 12.4661 86.987 12.263 86.7266 12.1172C86.4714 11.9661 86.1667 11.8906 85.8125 11.8906C85.4583 11.8906 85.151 11.9661 84.8906 12.1172C84.6354 12.263 84.4245 12.4661 84.2578 12.7266C84.0911 12.987 83.9688 13.2865 83.8906 13.625C83.8125 13.9583 83.7734 14.3125 83.7734 14.6875ZM93.2188 12.1562V19H91.3359V10.5469H93.1328L93.2188 12.1562ZM95.8047 10.4922L95.7891 12.2422C95.6745 12.2214 95.5495 12.2057 95.4141 12.1953C95.2839 12.1849 95.1536 12.1797 95.0234 12.1797C94.7005 12.1797 94.4167 12.2266 94.1719 12.3203C93.9271 12.4089 93.7214 12.5391 93.5547 12.7109C93.3932 12.8776 93.2682 13.0807 93.1797 13.3203C93.0911 13.5599 93.0391 13.8281 93.0234 14.125L92.5938 14.1562C92.5938 13.625 92.6458 13.1328 92.75 12.6797C92.8542 12.2266 93.0104 11.8281 93.2188 11.4844C93.4323 11.1406 93.6979 10.8724 94.0156 10.6797C94.3385 10.487 94.7109 10.3906 95.1328 10.3906C95.2474 10.3906 95.3698 10.401 95.5 10.4219C95.6354 10.4427 95.737 10.4661 95.8047 10.4922ZM100.555 19.1562C99.9297 19.1562 99.3646 19.0547 98.8594 18.8516C98.3594 18.6432 97.9323 18.3542 97.5781 17.9844C97.2292 17.6146 96.9609 17.1797 96.7734 16.6797C96.5859 16.1797 96.4922 15.6406 96.4922 15.0625V14.75C96.4922 14.0885 96.5885 13.4896 96.7812 12.9531C96.974 12.4167 97.2422 11.9583 97.5859 11.5781C97.9297 11.1927 98.3359 10.8984 98.8047 10.6953C99.2734 10.4922 99.7812 10.3906 100.328 10.3906C100.932 10.3906 101.461 10.4922 101.914 10.6953C102.367 10.8984 102.742 11.1849 103.039 11.5547C103.341 11.9193 103.565 12.3542 103.711 12.8594C103.862 13.3646 103.938 13.9219 103.938 14.5312V15.3359H97.4062V13.9844H102.078V13.8359C102.068 13.4974 102 13.1797 101.875 12.8828C101.755 12.5859 101.57 12.3464 101.32 12.1641C101.07 11.9818 100.737 11.8906 100.32 11.8906C100.008 11.8906 99.7292 11.9583 99.4844 12.0938C99.2448 12.224 99.0443 12.4141 98.8828 12.6641C98.7214 12.9141 98.5964 13.2161 98.5078 13.5703C98.4245 13.9193 98.3828 14.3125 98.3828 14.75V15.0625C98.3828 15.4323 98.4323 15.776 98.5312 16.0938C98.6354 16.4062 98.7865 16.6797 98.9844 16.9141C99.1823 17.1484 99.4219 17.3333 99.7031 17.4688C99.9844 17.599 100.305 17.6641 100.664 17.6641C101.117 17.6641 101.521 17.5729 101.875 17.3906C102.229 17.2083 102.536 16.9505 102.797 16.6172L103.789 17.5781C103.607 17.8438 103.37 18.099 103.078 18.3438C102.786 18.5833 102.43 18.7786 102.008 18.9297C101.591 19.0807 101.107 19.1562 100.555 19.1562Z" fill="white"/>
<g clip-path="url(#clip0_401_2)">
<path d="M16.8716 4.11975C17.6998 3.1188 18.2818 1.75934 18.2526 0.374632C18.2476 0.142105 18.0355 -0.0305513 17.8056 0.00453855C16.5905 0.190195 15.2323 0.951152 14.3916 1.93544C13.6167 2.83138 12.929 4.2237 12.9807 5.60337C12.9885 5.81127 13.1641 5.97697 13.3721 5.97108C14.7132 5.93315 16.0372 5.13009 16.8716 4.11975Z" fill="#D6D6D8"/>
<path d="M14.0272 5.60336C13.947 3.4644 15.5608 0.966063 18.1802 0.160622C18.098 0.0475829 17.9558 -0.0183819 17.8057 0.00452044C16.5907 0.190177 15.2324 0.951134 14.3917 1.93543C13.6168 2.83136 12.9291 4.22373 12.9808 5.60336C12.9886 5.81125 13.1643 5.97695 13.3722 5.97106C13.6323 5.9637 13.8916 5.92729 14.1469 5.86645C14.0765 5.79983 14.031 5.70685 14.0272 5.60336Z" fill="#C2C2C4"/>
<path d="M23.3444 18.9265C22.5025 18.5026 20.179 17.0398 20.1503 13.7958C20.1257 11.1403 21.8878 9.59621 22.6374 9.05706C22.8153 8.92904 22.8544 8.67854 22.7192 8.50604C22.0963 7.71207 21.3681 7.20279 20.6685 6.87266C20.6689 6.87261 20.6694 6.87251 20.6698 6.87245C20.5792 6.82965 20.4241 6.7617 20.2999 6.7128C16.7798 5.32713 14.5614 7.45106 13.2175 7.45106C12.1887 7.45106 10.601 6.28852 8.9188 6.32026C6.70834 6.35235 4.67232 7.60614 3.53243 9.58458C1.78362 12.62 2.36035 16.7694 3.72286 20.0033C3.72286 20.0033 3.72281 20.0033 3.72281 20.0034C3.75769 20.0861 3.81325 20.2148 3.85956 20.3188C3.85961 20.3187 3.85961 20.3186 3.85966 20.3185C4.25439 21.205 4.70629 22.015 5.18236 22.7036C6.27553 24.2837 7.57964 26.0637 9.29316 25.9982C10.9424 25.9328 11.5659 24.9319 13.5589 24.9319C15.5507 24.9319 16.1126 25.9982 17.8564 25.9665C19.6316 25.9328 20.7557 24.3541 21.8414 22.7665C22.7969 21.3715 23.3241 20.01 23.5353 19.397C23.5983 19.2143 23.5171 19.0134 23.3444 18.9265Z" fill="#D6D6D8"/>
<path d="M6.22869 22.7037C5.75261 22.0151 5.30071 21.2051 4.90599 20.3186C4.90594 20.3187 4.90594 20.3188 4.90589 20.3189C4.85963 20.215 4.80453 20.0873 4.76913 20.0035C4.76913 20.0035 4.76919 20.0034 4.76919 20.0034C3.41505 16.7895 2.82371 12.6308 4.57876 9.58468C5.6315 7.75757 7.44866 6.54933 9.46157 6.34981C9.28211 6.32823 9.10108 6.31696 8.91882 6.32036C6.70837 6.35246 4.67235 7.60625 3.53246 9.58468C1.78366 12.6201 2.36038 16.7695 3.72289 20.0034C3.72289 20.0034 3.72284 20.0035 3.72284 20.0035C3.75772 20.0862 3.81328 20.2149 3.85959 20.3189C3.85964 20.3188 3.85969 20.3187 3.85969 20.3186C4.25442 21.2051 4.70632 22.0151 5.18234 22.7037C6.27551 24.2838 7.57962 26.0638 9.29313 25.9984C9.46173 25.9916 9.61915 25.9748 9.76885 25.9506C8.33134 25.6591 7.19709 24.1035 6.22869 22.7037Z" fill="#C2C2C4"/>
</g>
<defs>
<clipPath id="clip0_401_2">
<rect width="26" height="26" fill="white"/>
</clipPath>
</defs>
</svg>
