<svg width="126" height="26" viewBox="0 0 126 26" fill="none" xmlns="http://www.w3.org/2000/svg">
<path d="M43.8906 13.1875V17.5312C43.7292 17.7448 43.4766 17.9792 43.1328 18.2344C42.7943 18.4844 42.3438 18.7005 41.7812 18.8828C41.2188 19.0651 40.5182 19.1562 39.6797 19.1562C38.9661 19.1562 38.3125 19.0365 37.7188 18.7969C37.125 18.5521 36.612 18.1953 36.1797 17.7266C35.7526 17.2578 35.4219 16.6875 35.1875 16.0156C34.9531 15.3385 34.8359 14.5677 34.8359 13.7031V12.9141C34.8359 12.0547 34.9427 11.2891 35.1562 10.6172C35.375 9.9401 35.6875 9.36719 36.0938 8.89844C36.5 8.42969 36.9896 8.07552 37.5625 7.83594C38.1406 7.59115 38.7943 7.46875 39.5234 7.46875C40.4557 7.46875 41.2266 7.625 41.8359 7.9375C42.4505 8.24479 42.9245 8.67188 43.2578 9.21875C43.5911 9.76562 43.8021 10.3906 43.8906 11.0938H41.9688C41.9062 10.6979 41.7839 10.3438 41.6016 10.0312C41.4245 9.71875 41.1693 9.47396 40.8359 9.29688C40.5078 9.11458 40.0807 9.02344 39.5547 9.02344C39.1016 9.02344 38.7031 9.10938 38.3594 9.28125C38.0156 9.45312 37.7292 9.70573 37.5 10.0391C37.276 10.3724 37.1068 10.7786 36.9922 11.2578C36.8776 11.737 36.8203 12.2839 36.8203 12.8984V13.7031C36.8203 14.3281 36.8854 14.8828 37.0156 15.3672C37.151 15.8516 37.3438 16.2604 37.5938 16.5938C37.849 16.9271 38.1589 17.1797 38.5234 17.3516C38.888 17.5182 39.2995 17.6016 39.7578 17.6016C40.2057 17.6016 40.5729 17.5651 40.8594 17.4922C41.1458 17.4141 41.3724 17.3229 41.5391 17.2188C41.7109 17.1094 41.8438 17.0052 41.9375 16.9062V14.6484H39.5703V13.1875H43.8906ZM45.5156 14.8672V14.6875C45.5156 14.0781 45.6042 13.513 45.7812 12.9922C45.9583 12.4661 46.2135 12.0104 46.5469 11.625C46.8854 11.2344 47.2969 10.9323 47.7812 10.7188C48.2708 10.5 48.8229 10.3906 49.4375 10.3906C50.0573 10.3906 50.6094 10.5 51.0938 10.7188C51.5833 10.9323 51.9974 11.2344 52.3359 11.625C52.6745 12.0104 52.9323 12.4661 53.1094 12.9922C53.2865 13.513 53.375 14.0781 53.375 14.6875V14.8672C53.375 15.4766 53.2865 16.0417 53.1094 16.5625C52.9323 17.0833 52.6745 17.5391 52.3359 17.9297C51.9974 18.3151 51.5859 18.6172 51.1016 18.8359C50.6172 19.0495 50.0677 19.1562 49.4531 19.1562C48.8333 19.1562 48.2786 19.0495 47.7891 18.8359C47.3047 18.6172 46.8932 18.3151 46.5547 17.9297C46.2161 17.5391 45.9583 17.0833 45.7812 16.5625C45.6042 16.0417 45.5156 15.4766 45.5156 14.8672ZM47.3984 14.6875V14.8672C47.3984 15.2474 47.4375 15.6068 47.5156 15.9453C47.5938 16.2839 47.7161 16.5807 47.8828 16.8359C48.0495 17.0911 48.263 17.2917 48.5234 17.4375C48.7839 17.5833 49.0938 17.6562 49.4531 17.6562C49.8021 17.6562 50.1042 17.5833 50.3594 17.4375C50.6198 17.2917 50.8333 17.0911 51 16.8359C51.1667 16.5807 51.2891 16.2839 51.3672 15.9453C51.4505 15.6068 51.4922 15.2474 51.4922 14.8672V14.6875C51.4922 14.3125 51.4505 13.9583 51.3672 13.625C51.2891 13.2865 51.1641 12.987 50.9922 12.7266C50.8255 12.4661 50.612 12.263 50.3516 12.1172C50.0964 11.9661 49.7917 11.8906 49.4375 11.8906C49.0833 11.8906 48.776 11.9661 48.5156 12.1172C48.2604 12.263 48.0495 12.4661 47.8828 12.7266C47.7161 12.987 47.5938 13.2865 47.5156 13.625C47.4375 13.9583 47.3984 14.3125 47.3984 14.6875ZM54.5938 14.8672V14.6875C54.5938 14.0781 54.6823 13.513 54.8594 12.9922C55.0365 12.4661 55.2917 12.0104 55.625 11.625C55.9635 11.2344 56.375 10.9323 56.8594 10.7188C57.349 10.5 57.901 10.3906 58.5156 10.3906C59.1354 10.3906 59.6875 10.5 60.1719 10.7188C60.6615 10.9323 61.0755 11.2344 61.4141 11.625C61.7526 12.0104 62.0104 12.4661 62.1875 12.9922C62.3646 13.513 62.4531 14.0781 62.4531 14.6875V14.8672C62.4531 15.4766 62.3646 16.0417 62.1875 16.5625C62.0104 17.0833 61.7526 17.5391 61.4141 17.9297C61.0755 18.3151 60.6641 18.6172 60.1797 18.8359C59.6953 19.0495 59.1458 19.1562 58.5312 19.1562C57.9115 19.1562 57.3568 19.0495 56.8672 18.8359C56.3828 18.6172 55.9714 18.3151 55.6328 17.9297C55.2943 17.5391 55.0365 17.0833 54.8594 16.5625C54.6823 16.0417 54.5938 15.4766 54.5938 14.8672ZM56.4766 14.6875V14.8672C56.4766 15.2474 56.5156 15.6068 56.5938 15.9453C56.6719 16.2839 56.7943 16.5807 56.9609 16.8359C57.1276 17.0911 57.3411 17.2917 57.6016 17.4375C57.862 17.5833 58.1719 17.6562 58.5312 17.6562C58.8802 17.6562 59.1823 17.5833 59.4375 17.4375C59.6979 17.2917 59.9115 17.0911 60.0781 16.8359C60.2448 16.5807 60.3672 16.2839 60.4453 15.9453C60.5286 15.6068 60.5703 15.2474 60.5703 14.8672V14.6875C60.5703 14.3125 60.5286 13.9583 60.4453 13.625C60.3672 13.2865 60.2422 12.987 60.0703 12.7266C59.9036 12.4661 59.6901 12.263 59.4297 12.1172C59.1745 11.9661 58.8698 11.8906 58.5156 11.8906C58.1615 11.8906 57.8542 11.9661 57.5938 12.1172C57.3385 12.263 57.1276 12.4661 56.9609 12.7266C56.7943 12.987 56.6719 13.2865 56.5938 13.625C56.5156 13.9583 56.4766 14.3125 56.4766 14.6875ZM69.4453 10.5469H71.1562V18.7656C71.1562 19.526 70.9948 20.1719 70.6719 20.7031C70.349 21.2344 69.8984 21.638 69.3203 21.9141C68.7422 22.1953 68.0729 22.3359 67.3125 22.3359C66.9896 22.3359 66.6302 22.2891 66.2344 22.1953C65.8438 22.1016 65.4635 21.9505 65.0938 21.7422C64.7292 21.5391 64.4245 21.2708 64.1797 20.9375L65.0625 19.8281C65.3646 20.1875 65.6979 20.4505 66.0625 20.6172C66.4271 20.7839 66.8099 20.8672 67.2109 20.8672C67.6432 20.8672 68.0104 20.7865 68.3125 20.625C68.6198 20.4688 68.8568 20.237 69.0234 19.9297C69.1901 19.6224 69.2734 19.2474 69.2734 18.8047V12.4609L69.4453 10.5469ZM63.7031 14.8672V14.7031C63.7031 14.0625 63.7812 13.4792 63.9375 12.9531C64.0938 12.4219 64.3177 11.9661 64.6094 11.5859C64.901 11.2005 65.2552 10.9062 65.6719 10.7031C66.0885 10.4948 66.5599 10.3906 67.0859 10.3906C67.6328 10.3906 68.099 10.4896 68.4844 10.6875C68.875 10.8854 69.2005 11.1693 69.4609 11.5391C69.7214 11.9036 69.9245 12.3411 70.0703 12.8516C70.2214 13.3568 70.3333 13.9193 70.4062 14.5391V15.0625C70.3385 15.6667 70.224 16.2188 70.0625 16.7188C69.901 17.2188 69.6875 17.651 69.4219 18.0156C69.1562 18.3802 68.8281 18.6615 68.4375 18.8594C68.0521 19.0573 67.5964 19.1562 67.0703 19.1562C66.5547 19.1562 66.0885 19.0495 65.6719 18.8359C65.2604 18.6224 64.9062 18.3229 64.6094 17.9375C64.3177 17.5521 64.0938 17.099 63.9375 16.5781C63.7812 16.0521 63.7031 15.4818 63.7031 14.8672ZM65.5859 14.7031V14.8672C65.5859 15.2526 65.6224 15.612 65.6953 15.9453C65.7734 16.2786 65.8906 16.5729 66.0469 16.8281C66.2083 17.0781 66.4115 17.276 66.6562 17.4219C66.9062 17.5625 67.2005 17.6328 67.5391 17.6328C67.9818 17.6328 68.3438 17.5391 68.625 17.3516C68.9115 17.1641 69.1302 16.9115 69.2812 16.5938C69.4375 16.2708 69.5469 15.9115 69.6094 15.5156V14.1016C69.5781 13.7943 69.513 13.5078 69.4141 13.2422C69.3203 12.9766 69.1927 12.7448 69.0312 12.5469C68.8698 12.3438 68.6667 12.1875 68.4219 12.0781C68.1771 11.9635 67.888 11.9062 67.5547 11.9062C67.2161 11.9062 66.9219 11.9792 66.6719 12.125C66.4219 12.2708 66.2161 12.4714 66.0547 12.7266C65.8984 12.9818 65.7812 13.2786 65.7031 13.6172C65.625 13.9557 65.5859 14.3177 65.5859 14.7031ZM75.125 7V19H73.2344V7H75.125ZM80.9141 19.1562C80.2891 19.1562 79.724 19.0547 79.2188 18.8516C78.7188 18.6432 78.2917 18.3542 77.9375 17.9844C77.5885 17.6146 77.3203 17.1797 77.1328 16.6797C76.9453 16.1797 76.8516 15.6406 76.8516 15.0625V14.75C76.8516 14.0885 76.9479 13.4896 77.1406 12.9531C77.3333 12.4167 77.6016 11.9583 77.9453 11.5781C78.2891 11.1927 78.6953 10.8984 79.1641 10.6953C79.6328 10.4922 80.1406 10.3906 80.6875 10.3906C81.2917 10.3906 81.8203 10.4922 82.2734 10.6953C82.7266 10.8984 83.1016 11.1849 83.3984 11.5547C83.7005 11.9193 83.9245 12.3542 84.0703 12.8594C84.2214 13.3646 84.2969 13.9219 84.2969 14.5312V15.3359H77.7656V13.9844H82.4375V13.8359C82.4271 13.4974 82.3594 13.1797 82.2344 12.8828C82.1146 12.5859 81.9297 12.3464 81.6797 12.1641C81.4297 11.9818 81.0964 11.8906 80.6797 11.8906C80.3672 11.8906 80.0885 11.9583 79.8438 12.0938C79.6042 12.224 79.4036 12.4141 79.2422 12.6641C79.0807 12.9141 78.9557 13.2161 78.8672 13.5703C78.7839 13.9193 78.7422 14.3125 78.7422 14.75V15.0625C78.7422 15.4323 78.7917 15.776 78.8906 16.0938C78.9948 16.4062 79.1458 16.6797 79.3438 16.9141C79.5417 17.1484 79.7812 17.3333 80.0625 17.4688C80.3438 17.599 80.6641 17.6641 81.0234 17.6641C81.4766 17.6641 81.8802 17.5729 82.2344 17.3906C82.5885 17.2083 82.8958 16.9505 83.1562 16.6172L84.1484 17.5781C83.9661 17.8438 83.7292 18.099 83.4375 18.3438C83.1458 18.5833 82.7891 18.7786 82.3672 18.9297C81.9505 19.0807 81.4661 19.1562 80.9141 19.1562ZM94.2578 14.7578H91.2969V13.2031H94.2578C94.7734 13.2031 95.1901 13.1198 95.5078 12.9531C95.8255 12.7865 96.0573 12.5573 96.2031 12.2656C96.3542 11.9688 96.4297 11.6302 96.4297 11.25C96.4297 10.8906 96.3542 10.5547 96.2031 10.2422C96.0573 9.92448 95.8255 9.66927 95.5078 9.47656C95.1901 9.28385 94.7734 9.1875 94.2578 9.1875H91.8984V19H89.9375V7.625H94.2578C95.138 7.625 95.8854 7.78125 96.5 8.09375C97.1198 8.40104 97.5911 8.82812 97.9141 9.375C98.237 9.91667 98.3984 10.5365 98.3984 11.2344C98.3984 11.9688 98.237 12.599 97.9141 13.125C97.5911 13.651 97.1198 14.0547 96.5 14.3359C95.8854 14.6172 95.138 14.7578 94.2578 14.7578ZM101.984 7V19H100.094V7H101.984ZM108.812 17.3047V13.2734C108.812 12.9714 108.758 12.7109 108.648 12.4922C108.539 12.2734 108.372 12.1042 108.148 11.9844C107.93 11.8646 107.654 11.8047 107.32 11.8047C107.013 11.8047 106.747 11.8568 106.523 11.9609C106.299 12.0651 106.125 12.2057 106 12.3828C105.875 12.5599 105.812 12.7604 105.812 12.9844H103.938C103.938 12.651 104.018 12.3281 104.18 12.0156C104.341 11.7031 104.576 11.4245 104.883 11.1797C105.19 10.9349 105.557 10.7422 105.984 10.6016C106.411 10.4609 106.891 10.3906 107.422 10.3906C108.057 10.3906 108.62 10.4974 109.109 10.7109C109.604 10.9245 109.992 11.2474 110.273 11.6797C110.56 12.1068 110.703 12.6432 110.703 13.2891V17.0469C110.703 17.4323 110.729 17.7786 110.781 18.0859C110.839 18.388 110.919 18.651 111.023 18.875V19H109.094C109.005 18.7969 108.935 18.5391 108.883 18.2266C108.836 17.9089 108.812 17.6016 108.812 17.3047ZM109.086 13.8594L109.102 15.0234H107.75C107.401 15.0234 107.094 15.0573 106.828 15.125C106.562 15.1875 106.341 15.2812 106.164 15.4062C105.987 15.5312 105.854 15.6823 105.766 15.8594C105.677 16.0365 105.633 16.237 105.633 16.4609C105.633 16.6849 105.685 16.8906 105.789 17.0781C105.893 17.2604 106.044 17.4036 106.242 17.5078C106.445 17.612 106.69 17.6641 106.977 17.6641C107.362 17.6641 107.698 17.5859 107.984 17.4297C108.276 17.2682 108.505 17.0729 108.672 16.8438C108.839 16.6094 108.927 16.388 108.938 16.1797L109.547 17.0156C109.484 17.2292 109.378 17.4583 109.227 17.7031C109.076 17.9479 108.878 18.1823 108.633 18.4062C108.393 18.625 108.104 18.8047 107.766 18.9453C107.432 19.0859 107.047 19.1562 106.609 19.1562C106.057 19.1562 105.565 19.0469 105.133 18.8281C104.701 18.6042 104.362 18.3047 104.117 17.9297C103.872 17.5495 103.75 17.1198 103.75 16.6406C103.75 16.1927 103.833 15.7969 104 15.4531C104.172 15.1042 104.422 14.8125 104.75 14.5781C105.083 14.3438 105.49 14.1667 105.969 14.0469C106.448 13.9219 106.995 13.8594 107.609 13.8594H109.086ZM115 18.0781L117.297 10.5469H119.312L115.922 20.2891C115.844 20.4974 115.742 20.724 115.617 20.9688C115.492 21.2135 115.328 21.4453 115.125 21.6641C114.927 21.888 114.68 22.0677 114.383 22.2031C114.086 22.3438 113.727 22.4141 113.305 22.4141C113.138 22.4141 112.977 22.3984 112.82 22.3672C112.669 22.3411 112.526 22.3125 112.391 22.2812L112.383 20.8438C112.435 20.849 112.497 20.8542 112.57 20.8594C112.648 20.8646 112.711 20.8672 112.758 20.8672C113.07 20.8672 113.331 20.8281 113.539 20.75C113.747 20.6771 113.917 20.5573 114.047 20.3906C114.182 20.224 114.297 20 114.391 19.7188L115 18.0781ZM113.703 10.5469L115.711 16.875L116.047 18.8594L114.742 19.1953L111.672 10.5469H113.703Z" fill="#150C01"/>
<g clip-path="url(#clip0_1_150)">
<path d="M18.4248 13.0001L2.41129 0.57749C1.79811 1.05702 1.38506 1.80193 1.38506 2.69004L1.38506 23.3102C1.38506 24.1983 1.79811 24.9432 2.41129 25.4221L18.4248 13.0001Z" fill="#9DC6FB"/>
<path d="M23.2717 10.674L19.397 8.43674L16.0009 8.86142L14.8344 13L15.4268 16.9623L19.397 17.5627L23.2717 15.3261C25.0626 14.2922 25.0626 11.7079 23.2717 10.674V10.674Z" fill="#FFE07D"/>
<path d="M19.3967 8.43676L5.41403 0.363906C4.39231 -0.225614 3.22541 -0.0586951 2.41148 0.577442L14.8341 13.0001L19.3967 8.43676Z" fill="#DD5790"/>
<path d="M19.3967 17.5628L14.8341 13.0001L2.41148 25.4221C3.22541 26.059 4.39231 26.2258 5.41403 25.6363L19.3967 17.5628Z" fill="#95D6A4"/>
<path d="M4.41248 2.69C4.41248 2.50952 4.42924 2.33534 4.46164 2.16792L2.41145 0.57755C1.79831 1.05677 1.38506 1.80168 1.38506 2.69L1.38506 23.3102C1.38506 24.1979 1.79836 24.9429 2.41145 25.4221L4.46164 23.8318C4.42919 23.6644 4.41248 23.4901 4.41248 23.3102L4.41248 2.69Z" fill="#80B4FB"/>
<path d="M5.59219 0.466095L5.4143 0.363567C4.39258 -0.225497 3.22548 -0.0586286 2.41145 0.577509L4.41457 2.58063C4.44702 1.74045 4.85088 1.03683 5.43837 0.577509H5.43888C5.48859 0.538814 5.53988 0.501185 5.59219 0.466095V0.466095Z" fill="#DA387D"/>
<path d="M5.43891 25.4221L5.43942 25.4211L5.43835 25.4221C4.85036 24.9628 4.447 24.2586 4.41455 23.419L2.41148 25.4221C3.22546 26.0588 4.39261 26.2256 5.41428 25.6361L5.59217 25.5335C5.53986 25.4985 5.48857 25.4608 5.43891 25.4221Z" fill="#78C2A4"/>
</g>
<defs>
<clipPath id="clip0_1_150">
<rect width="26" height="26" fill="white" transform="matrix(1 0 0 -1 0 26)"/>
</clipPath>
</defs>
</svg>
